<svg width="39" height="22" viewBox="0 0 39 22" fill="none" xmlns="http://www.w3.org/2000/svg">
<path d="M38.5802 7.9505C38.5842 7.92147 38.5842 7.89213 38.5802 7.86311C38.584 7.83946 38.584 7.81534 38.5802 7.79164L38.2966 5.75031C38.2557 5.50609 38.1463 5.27783 37.9807 5.09105L37.932 5.03545L37.8429 4.94807L32.9331 0.801883L33.0709 0.936923C32.9582 0.804751 32.8167 0.699031 32.6569 0.627551C32.4971 0.55607 32.3229 0.520645 32.1473 0.523889H30.6565C30.4141 0.51918 30.1772 0.59474 29.984 0.738351C29.7812 0.595605 29.5369 0.520432 29.2872 0.523889H27.7965C27.601 0.520779 27.4081 0.568351 27.2374 0.661802C27.0666 0.755252 26.9241 0.891263 26.8243 1.05606C26.6703 1.29144 26.6124 1.57503 26.6622 1.85035L26.8486 3.1371C26.7251 3.06849 26.5854 3.03289 26.4435 3.03385H19.2246C18.9656 3.03544 18.7126 3.10987 18.4954 3.2483C18.2854 3.37715 18.1169 3.56165 18.0093 3.78047L17.4503 3.31184C17.2302 3.11226 16.9398 3.00408 16.6401 3.01002H5.31354C5.05362 3.01466 4.79947 3.08585 4.57628 3.21653C4.27094 3.39174 4.04716 3.67663 3.95241 4.01082L0.355144 15.806C0.28793 16.0004 0.281318 16.21 0.336155 16.4081C0.390992 16.6061 0.504794 16.7837 0.663022 16.918C0.704252 16.9523 0.747543 16.9841 0.792657 17.0133C0.792657 17.0133 0.719727 16.9657 0.679217 16.926L5.58903 21.0801C5.79672 21.2676 6.06827 21.3724 6.35056 21.374H17.7663C18.027 21.3673 18.2813 21.2934 18.5035 21.1595C18.6292 21.0922 18.7417 21.0034 18.8357 20.8974L18.8762 20.8418L18.941 20.7624L18.9896 20.675L19.5244 21.1278C19.7291 21.3078 19.9948 21.4068 20.2698 21.4058H31.7097C31.9701 21.3973 32.224 21.3234 32.447 21.1913C32.5699 21.1198 32.6817 21.0316 32.7792 20.9292L32.8197 20.8736L32.8845 20.7942C32.9189 20.7439 32.9488 20.6908 32.9736 20.6353C33.0001 20.5871 33.0218 20.5366 33.0384 20.4844L36.3197 9.71384V9.61851C36.3238 9.58155 36.3238 9.54427 36.3197 9.50731V9.43584C36.3237 9.41214 36.3237 9.38802 36.3197 9.36432C36.3234 9.3141 36.3234 9.26367 36.3197 9.2134H37.373C37.4646 9.22164 37.5568 9.22164 37.6484 9.2134H37.7214C37.7807 9.19606 37.8378 9.17205 37.8915 9.14193H37.9726L38.1184 9.03073L38.1832 8.98307L38.2966 8.84008V8.79247L38.3776 8.65741C38.3731 8.63115 38.3731 8.60427 38.3776 8.57801C38.3733 8.56511 38.3733 8.55117 38.3776 8.53828C38.3949 8.49171 38.4084 8.44389 38.4182 8.39529C38.4144 8.37963 38.4144 8.36329 38.4182 8.34762C38.4142 8.32398 38.4142 8.2998 38.4182 8.27616C38.4182 8.27616 38.5802 7.96637 38.5802 7.9505Z" fill="black"/>
</svg>
